<?xml version="1.0" standalone="no"?>
<!DOCTYPE svg PUBLIC "-//W3C//DTD SVG 20010904//EN"
 "http://www.w3.org/TR/2001/REC-SVG-20010904/DTD/svg10.dtd">
<svg version="1.0" xmlns="http://www.w3.org/2000/svg"
 width="260.000000pt" height="260.000000pt" viewBox="0 0 260.000000 260.000000"
 preserveAspectRatio="xMidYMid meet">
<metadata>
Created by potrace 1.14, written by Peter Selinger 2001-2017
</metadata>
<g transform="translate(0.000000,260.000000) scale(0.100000,-0.100000)"
fill="#1C1F22" stroke="none">
<path d="M427 2480 c-65 -66 -123 -120 -129 -120 -6 0 -9 -2 -6 -5 6 -7 -81
-95 -94 -95 -5 0 -7 -3 -5 -7 3 -8 -38 -52 -48 -53 -3 0 -6 -3 -7 -7 -2 -5
-33 -37 -70 -73 -52 -50 -68 -72 -68 -93 0 -23 62 -90 379 -407 209 -208 384
-387 389 -397 9 -14 -35 -62 -274 -300 -258 -258 -304 -308 -310 -338 -1 -5
-8 -23 -15 -40 -6 -16 -13 -36 -15 -43 -1 -8 -6 -21 -10 -30 -4 -9 -8 -22 -10
-29 -1 -7 -9 -27 -18 -44 -9 -18 -16 -36 -16 -40 0 -4 -5 -20 -12 -36 -6 -15
-12 -35 -12 -44 -1 -9 -7 -23 -13 -31 -7 -8 -10 -17 -7 -21 3 -3 0 -16 -7 -29
-7 -12 -14 -32 -16 -43 -2 -10 -7 -22 -11 -25 -9 -7 -13 -25 -20 -82 l-5 -48
47 0 c26 0 46 5 46 11 0 6 6 9 13 6 6 -2 24 2 40 10 15 7 27 11 27 7 0 -4 6
-1 13 5 8 6 17 8 20 4 4 -3 7 -1 7 6 0 7 4 10 10 6 5 -3 17 -1 27 4 18 9 40
17 56 20 4 0 20 7 36 15 16 9 31 12 35 9 3 -4 6 -2 6 4 0 10 64 29 83 25 4 -1
7 2 7 7 0 5 16 12 35 15 19 4 35 10 35 15 0 4 6 8 13 9 31 2 61 13 80 29 11
10 145 143 298 296 153 152 280 277 282 277 3 0 181 -175 396 -390 416 -416
419 -418 462 -368 11 11 19 18 19 14 0 -4 11 6 25 22 46 55 188 192 198 192 6
0 8 2 5 5 -7 7 85 102 95 98 4 -3 7 0 7 6 0 13 109 121 122 121 6 0 9 3 5 6
-3 4 7 18 23 32 62 54 68 47 -347 461 -208 208 -384 385 -391 394 -12 14 30
60 366 397 209 209 378 380 376 380 -3 0 2 8 11 17 14 13 16 32 13 94 l-3 77
-120 121 c-65 67 -125 121 -132 121 -7 0 -13 5 -13 10 0 6 -32 10 -75 10 -46
0 -75 -4 -75 -11 0 -5 -4 -8 -9 -5 -5 4 -183 -167 -395 -379 -212 -212 -387
-385 -390 -385 -2 0 -180 176 -394 390 -330 330 -395 390 -419 390 -22 0 -52
-24 -146 -120z m1883 17 c14 -9 53 -45 87 -81 34 -35 64 -62 67 -58 3 3 6 -2
6 -11 0 -10 4 -17 10 -17 23 0 44 -78 31 -113 -5 -12 -55 -68 -110 -124 l-102
-101 -73 71 c-40 40 -71 75 -69 80 2 4 -1 7 -6 7 -15 0 -91 75 -91 89 0 6 -4
11 -10 11 -15 0 -50 33 -44 42 3 4 0 8 -6 8 -14 0 190 199 215 210 28 11 66 6
95 -13z m-1674 -53 c47 -46 55 -59 50 -80 -4 -14 -11 -22 -16 -19 -6 3 -10 2
-10 -4 0 -6 -30 -41 -67 -78 -37 -36 -62 -68 -55 -71 6 -2 8 -10 5 -18 -3 -8
-1 -15 3 -15 49 -8 57 -3 134 73 91 90 78 90 163 4 l48 -48 -48 -52 c-26 -29
-51 -51 -55 -49 -5 3 -8 1 -8 -4 0 -4 -13 -21 -28 -38 -15 -16 -27 -36 -26
-42 1 -7 2 -18 3 -24 0 -5 5 -8 10 -4 5 3 12 1 16 -5 3 -5 12 -10 19 -10 14 0
147 126 140 133 -2 2 7 9 21 15 23 11 29 7 85 -48 60 -60 72 -80 46 -80 -8 0
-17 -8 -20 -17 -3 -10 -19 -27 -36 -38 -16 -11 -30 -23 -30 -27 0 -11 -48 -56
-54 -51 -7 7 2 -55 9 -67 10 -16 55 -12 61 5 4 8 12 15 20 15 8 0 14 5 14 10
0 9 35 46 99 104 18 16 22 14 107 -71 49 -48 88 -89 87 -91 -1 -2 -108 -109
-238 -238 -209 -208 -238 -234 -253 -222 -9 7 -178 174 -375 371 -354 354
-358 359 -340 379 31 35 456 458 459 458 2 0 29 -25 60 -56z m1452 -364 c108
-107 144 -148 137 -158 -5 -6 -34 -37 -63 -68 l-53 -55 -155 154 -154 154 61
61 c33 34 65 61 70 59 5 -1 76 -67 157 -147z m-198 -190 c82 -83 150 -152 149
-155 0 -2 -311 -315 -691 -696 l-692 -691 -13 59 c-7 32 -14 64 -15 71 -1 6
-5 12 -9 12 -4 0 -11 9 -14 21 -9 28 -70 84 -112 104 -35 17 -52 22 -112 33
l-34 7 693 693 c380 380 694 692 696 692 2 0 71 -68 154 -150z m-91 -609 c28
-27 39 -45 34 -56 -3 -10 -38 -49 -77 -89 -73 -73 -75 -76 -63 -112 13 -39 53
-21 137 60 43 42 80 76 83 76 12 0 117 -109 117 -120 0 -7 -30 -42 -67 -80
-90 -89 -97 -102 -74 -129 10 -12 24 -21 31 -21 6 0 37 25 67 55 31 30 60 55
66 55 6 0 7 3 4 6 -3 4 5 15 19 26 31 25 12 40 242 -190 181 -181 183 -184
165 -204 -26 -29 -429 -433 -447 -447 -12 -10 -73 46 -373 346 -197 198 -364
366 -371 376 -12 14 13 43 222 252 129 129 237 235 240 235 3 0 23 -18 45 -39z
m-1411 -724 c6 -5 17 -5 22 -2 6 3 10 1 10 -6 0 -6 8 -9 18 -7 10 2 34 -12 60
-39 24 -24 41 -43 37 -43 -4 0 -3 -6 3 -13 6 -7 13 -26 16 -42 2 -17 5 -30 6
-30 1 0 3 -23 4 -52 2 -50 1 -53 -28 -64 -17 -7 -33 -13 -36 -14 -3 -1 -20 -6
-37 -10 -18 -4 -33 -12 -33 -18 0 -6 -3 -8 -6 -4 -3 3 -19 1 -36 -5 -28 -10
-32 -7 -109 70 -68 68 -79 85 -74 104 4 13 8 28 9 33 0 6 3 12 6 15 3 3 14 30
24 60 10 30 25 60 32 66 15 12 93 13 112 1z m-173 -343 c47 -47 48 -63 3 -64
-10 0 -18 -5 -18 -11 0 -5 -4 -7 -10 -4 -5 3 -10 2 -10 -2 0 -5 -8 -9 -17 -9
-10 -1 -26 -4 -35 -9 -11 -4 -18 -3 -18 4 0 6 4 11 9 11 6 0 8 9 6 20 -2 11 1
20 6 20 6 0 8 4 4 9 -3 5 -1 12 4 15 4 3 11 19 14 36 4 16 8 30 11 30 2 0 25
-21 51 -46z"/>
<path d="M2030 668 c0 -4 -7 -8 -15 -8 -22 0 -70 -50 -82 -85 -14 -42 -10
-104 10 -142 16 -30 77 -83 77 -67 0 5 5 3 12 -4 27 -27 138 -6 173 33 18 19
46 75 38 75 -4 0 -1 5 7 10 13 8 13 10 0 10 -10 0 -11 3 -3 11 8 8 8 20 3 35
-5 13 -7 24 -5 24 15 0 -53 84 -79 97 -33 17 -136 26 -136 11z m97 -90 c19 -9
29 -26 38 -67 5 -20 -21 -56 -51 -70 -36 -16 -78 3 -97 44 -14 29 -14 34 5 63
11 18 26 32 34 32 8 0 14 4 14 10 0 10 19 6 57 -12z"/>
</g>
</svg>
