<?xml version="1.0" standalone="no"?>
<!DOCTYPE svg PUBLIC "-//W3C//DTD SVG 20010904//EN"
 "http://www.w3.org/TR/2001/REC-SVG-20010904/DTD/svg10.dtd">
<svg version="1.0" xmlns="http://www.w3.org/2000/svg"
 width="192.000000pt" height="192.000000pt" viewBox="0 0 192.000000 192.000000"
 preserveAspectRatio="xMidYMid meet">

<g transform="translate(0.000000,192.000000) scale(0.100000,-0.100000)"
fill="#000000" stroke="none">
<path d="M0 960 l0 -960 960 0 960 0 0 960 0 960 -960 0 -960 0 0 -960z m760
575 c135 -135 249 -245 255 -245 5 0 120 110 255 245 234 233 248 245 283 245
51 0 82 -18 148 -87 67 -69 79 -90 79 -139 0 -36 -12 -50 -245 -284 -135 -135
-245 -250 -245 -255 0 -6 110 -120 245 -255 135 -135 245 -252 245 -260 0 -20
-340 -360 -360 -360 -8 0 -125 110 -260 245 -135 135 -249 245 -255 245 -5 0
-93 -83 -195 -184 l-185 -184 -105 -37 c-263 -94 -280 -98 -280 -66 0 11 18
70 41 133 22 62 50 140 61 173 19 55 35 75 204 245 101 102 184 190 184 195 0
6 -110 120 -245 255 -135 135 -245 252 -245 260 0 20 340 360 360 360 8 0 125
-110 260 -245z"/>
<path d="M1466 1660 l-71 -69 98 -98 98 -98 69 71 c46 48 70 80 70 95 0 33
-136 169 -168 169 -17 0 -48 -23 -96 -70z"/>
<path d="M352 1567 l-152 -152 233 -233 c128 -127 237 -232 242 -232 13 0 295
282 295 295 0 5 -23 33 -52 62 l-52 52 -52 -49 c-55 -52 -78 -61 -88 -34 -4
10 12 34 46 70 l52 55 -42 42 -42 42 -53 -53 c-55 -54 -74 -62 -84 -36 -4 10
12 34 48 70 l54 54 -42 42 -41 41 -56 -53 c-35 -33 -61 -50 -71 -46 -25 9 -17
28 37 83 l53 53 -40 40 -40 40 -153 -153z"/>
<path d="M1315 1510 l-39 -40 97 -98 97 -97 40 41 41 40 -78 80 c-125 126
-113 120 -158 74z"/>
<path d="M797 992 l-438 -438 50 -13 c66 -17 114 -64 132 -130 l14 -51 438
438 437 437 -98 98 -97 97 -438 -438z"/>
<path d="M1092 827 c-78 -78 -142 -147 -142 -152 0 -6 105 -115 233 -243 l232
-232 153 153 152 152 -123 123 c-67 67 -127 122 -133 122 -5 0 -32 -22 -58
-49 -48 -48 -76 -57 -76 -22 0 9 20 37 45 61 25 24 45 49 45 55 0 13 -62 75
-75 75 -5 0 -33 -23 -62 -52 -50 -49 -54 -51 -70 -35 -16 16 -14 20 35 70 29
29 52 57 52 63 0 13 -43 54 -56 54 -5 0 -73 -64 -152 -143z m419 -277 c24 -13
49 -61 49 -96 0 -35 -59 -94 -94 -94 -35 0 -83 25 -96 49 -19 37 -12 100 15
126 26 27 89 34 126 15z"/>
<path d="M1425 495 c-27 -26 -25 -46 10 -75 35 -29 93 31 64 66 -28 34 -48 36
-74 9z"/>
<path d="M303 483 c-3 -10 -12 -33 -19 -52 -8 -18 -14 -43 -14 -54 0 -27 78
-107 105 -107 30 0 119 36 123 50 9 25 -19 118 -41 137 -46 42 -143 57 -154
26z"/>
<path d="M231 278 c-25 -66 -25 -70 1 -63 77 24 81 30 45 63 -29 28 -35 27
-46 0z"/>
</g>
</svg>
