<?xml version="1.0" standalone="no"?>
<!DOCTYPE svg PUBLIC "-//W3C//DTD SVG 20010904//EN"
 "http://www.w3.org/TR/2001/REC-SVG-20010904/DTD/svg10.dtd">
<svg version="1.0" xmlns="http://www.w3.org/2000/svg"
 width="352.000000pt" height="392.000000pt" viewBox="0 0 352.000000 392.000000"
 preserveAspectRatio="xMidYMid meet">

<g transform="translate(0.000000,392.000000) scale(0.100000,-0.100000)"
fill="#000000" stroke="none">
<path d="M405 3910 c-193 -43 -342 -182 -391 -365 -20 -74 -20 -3096 0 -3170
42 -157 164 -289 322 -346 81 -30 244 -31 324 -3 49 17 2556 1457 2656 1525
235 161 275 525 81 745 -22 25 -58 57 -81 73 -103 71 -2607 1508 -2655 1524
-62 21 -198 30 -256 17z"/>
</g>
</svg>
