<?xml version="1.0" standalone="no"?>
<!DOCTYPE svg PUBLIC "-//W3C//DTD SVG 20010904//EN"
 "http://www.w3.org/TR/2001/REC-SVG-20010904/DTD/svg10.dtd">
<svg version="1.0" xmlns="http://www.w3.org/2000/svg"
 width="512.000000pt" height="512.000000pt" viewBox="0 0 512.000000 512.000000"
 preserveAspectRatio="xMidYMid meet">

<g transform="translate(0.000000,512.000000) scale(0.100000,-0.100000)"
fill="#000000" stroke="none">
<path d="M135 5099 c-55 -29 -88 -62 -113 -113 l-22 -43 2 -2394 3 -2394 30
-45 c17 -24 51 -58 75 -75 l45 -30 2405 0 2405 0 45 30 c24 17 58 51 75 75
l30 45 0 2405 0 2405 -30 45 c-17 24 -51 58 -75 75 l-45 30 -2395 3 -2395 2
-40 -21z"/>
</g>
</svg>
