<svg version="1.1" id="Layer_1" xmlns="http://www.w3.org/2000/svg" xmlns:xlink="http://www.w3.org/1999/xlink" x="0px" y="0px" width="100%" viewBox="0 0 128 128" enable-background="new 0 0 128 128" xml:space="preserve">
    <path opacity="1.000000" stroke="none" d=" M93.000000,129.000000   C62.000000,129.000000 31.500000,129.000000 1.000000,129.000000   C1.000000,86.333336 1.000000,43.666668 1.000000,1.000000   C43.666668,1.000000 86.333336,1.000000 129.000000,1.000000   C129.000000,43.666668 129.000000,86.333336 129.000000,129.000000   C117.166664,129.000000 105.333336,129.000000 93.000000,129.000000  M70.881531,30.500105   C70.882027,24.172634 70.886047,17.845161 70.881737,11.517693   C70.878990,7.485922 68.391006,4.561245 64.826828,5.080828   C61.476902,5.569177 58.942787,6.982492 59.008640,11.398557   C59.239502,26.880814 59.105782,42.368519 59.109135,57.854153   C59.110779,65.432976 59.109421,73.011795 59.109421,81.442978   C51.917377,74.292465 45.375778,67.774750 38.817028,61.274334   C36.053307,58.535202 30.425901,58.038074 28.218887,60.300365   C26.026955,62.547207 26.597219,68.142365 29.351900,70.901512   C39.230999,80.796631 49.118786,90.683105 59.020924,100.555161   C62.576763,104.100204 67.438904,104.077469 71.021713,100.504311   C78.683754,92.862923 86.324181,85.199860 93.969597,77.541809   C96.673096,74.833832 99.703529,72.360321 101.926132,69.301277   C103.113327,67.667282 103.484123,64.926476 103.173073,62.841915   C102.741829,59.951935 100.488518,58.995152 97.383591,58.983433   C94.468620,58.972435 92.531944,59.824284 90.542984,61.884327   C84.293861,68.356789 77.824310,74.616417 70.881531,81.513359   C70.881531,64.131775 70.881531,47.815926 70.881531,30.500105  M125.000732,100.706116   C125.000732,100.206306 125.005577,99.706436 124.999992,99.206688   C124.934547,93.344742 123.082535,91.036873 118.452133,91.044304   C113.910004,91.051598 112.021149,93.459419 112.001884,99.303940   C111.988312,103.421349 111.999268,107.538849 111.999268,111.792160   C80.501732,111.792160 49.439705,111.792160 17.999538,111.792160   C17.999538,106.971672 17.937588,102.347046 18.018021,97.724892   C18.089750,93.602814 16.424152,91.432495 12.075593,91.035522   C7.292435,90.598862 5.276018,93.186264 5.087960,97.196495   C4.768362,104.011742 4.536273,110.894753 5.148639,117.669640   C5.627245,122.964668 6.430315,124.991722 12.529268,124.994095   C47.513405,125.007706 82.497559,125.013847 117.481689,124.986710   C122.789642,124.982590 124.921555,122.864807 124.986099,117.653305   C125.052109,112.323204 125.000725,106.991653 125.000732,100.706116  z" fill="rgba(0, 0, 0, 0)"/>
    <path opacity="1.000000" stroke="none" d=" M70.881531,31.000092   C70.881531,47.815926 70.881531,64.131775 70.881531,81.513359   C77.824310,74.616417 84.293861,68.356789 90.542984,61.884327   C92.531944,59.824284 94.468620,58.972435 97.383591,58.983433   C100.488518,58.995152 102.741829,59.951935 103.173073,62.841915   C103.484123,64.926476 103.113327,67.667282 101.926132,69.301277   C99.703529,72.360321 96.673096,74.833832 93.969597,77.541809   C86.324181,85.199860 78.683754,92.862923 71.021713,100.504311   C67.438904,104.077469 62.576763,104.100204 59.020924,100.555161   C49.118786,90.683105 39.230999,80.796631 29.351900,70.901512   C26.597219,68.142365 26.026955,62.547207 28.218887,60.300365   C30.425901,58.038074 36.053307,58.535202 38.817028,61.274334   C45.375778,67.774750 51.917377,74.292465 59.109421,81.442978   C59.109421,73.011795 59.110779,65.432976 59.109135,57.854153   C59.105782,42.368519 59.239502,26.880814 59.008640,11.398557   C58.942787,6.982492 61.476902,5.569177 64.826828,5.080828   C68.391006,4.561245 70.878990,7.485922 70.881737,11.517693   C70.886047,17.845161 70.882027,24.172634 70.881531,31.000092  z" fill="white"/>
    <path opacity="1.000000" stroke="none" d=" M125.000732,101.183426   C125.000725,106.991653 125.052109,112.323204 124.986099,117.653305   C124.921555,122.864807 122.789642,124.982590 117.481689,124.986710   C82.497559,125.013847 47.513405,125.007706 12.529268,124.994095   C6.430315,124.991722 5.627245,122.964668 5.148639,117.669640   C4.536273,110.894753 4.768362,104.011742 5.087960,97.196495   C5.276018,93.186264 7.292435,90.598862 12.075593,91.035522   C16.424152,91.432495 18.089750,93.602814 18.018021,97.724892   C17.937588,102.347046 17.999538,106.971672 17.999538,111.792160   C49.439705,111.792160 80.501732,111.792160 111.999268,111.792160   C111.999268,107.538849 111.988312,103.421349 112.001884,99.303940   C112.021149,93.459419 113.910004,91.051598 118.452133,91.044304   C123.082535,91.036873 124.934547,93.344742 124.999992,99.206688   C125.005577,99.706436 125.000732,100.206306 125.000732,101.183426  z" fill="white"/>
    </svg>