<svg version="1.1" id="Layer_1" xmlns="http://www.w3.org/2000/svg" xmlns:xlink="http://www.w3.org/1999/xlink" x="0px" y="0px"
	 width="100%" viewBox="0 0 128 128" enable-background="new 0 0 128 128" xml:space="preserve">
<path fill="rgba(0, 0, 0, 0)" opacity="1.000000" stroke="none" 
	d="
M82.000000,1.000001 
	C97.630592,1.000000 113.261192,1.000000 128.945892,1.000000 
	C128.945892,43.666656 128.945892,86.333321 128.945892,129.000000 
	C123.583023,129.000000 118.261971,129.000000 112.357109,128.587738 
	C112.119858,126.260254 112.763885,124.345711 112.768280,122.429703 
	C112.833122,94.173943 112.909760,65.917137 112.659264,37.663452 
	C112.634918,34.917702 111.089981,31.606485 109.177834,29.560719 
	C102.375557,22.283102 95.049835,15.497765 88.052864,8.397369 
	C85.826096,6.137682 84.006119,3.477127 82.000000,1.000001 
z"/>
<path fill="#99e" opacity="1.000000" stroke="none" 
	d="
M81.531342,1.000001 
	C84.006119,3.477127 85.826096,6.137682 88.052864,8.397369 
	C95.049835,15.497765 102.375557,22.283102 109.177834,29.560719 
	C111.089981,31.606485 112.634918,34.917702 112.659264,37.663452 
	C112.909760,65.917137 112.833122,94.173943 112.768280,122.429703 
	C112.763885,124.345711 112.119858,126.260254 111.886658,128.587738 
	C80.979103,129.000000 49.958210,129.000000 18.576511,128.586823 
	C17.872332,126.091187 17.232864,124.009209 17.229519,121.926208 
	C17.169155,84.355865 17.168617,46.785393 17.220663,9.215032 
	C17.224457,6.476333 17.728523,3.738328 18.000000,1.000000 
	C39.020893,1.000000 60.041790,1.000000 81.531342,1.000001 
M21.812225,54.499943 
	C21.812225,77.571327 21.812225,100.642715 21.812225,123.858635 
	C50.906361,123.858635 79.272995,123.858635 107.848389,123.858635 
	C107.848389,93.357590 107.848389,63.186466 107.848389,32.534149 
	C98.785172,32.534149 90.054741,32.534149 81.044754,32.534149 
	C81.044754,23.448637 81.044754,14.843547 81.044754,6.221182 
	C61.223179,6.221182 41.710003,6.221182 21.812220,6.221182 
	C21.812220,22.251348 21.812220,37.875645 21.812225,54.499943 
z"/>
<path fill="rgba(0, 0, 0, 0)" opacity="1.000000" stroke="none" 
	d="
M17.529547,1.000000 
	C17.728523,3.738328 17.224457,6.476333 17.220663,9.215032 
	C17.168617,46.785393 17.169155,84.355865 17.229519,121.926208 
	C17.232864,124.009209 17.872332,126.091187 18.107855,128.586823 
	C12.348804,129.000000 6.697609,129.000000 1.048894,129.000000 
	C1.051374,86.333305 1.051374,43.666630 1.051374,1.000000 
	C6.421530,1.000000 11.740312,1.000000 17.529547,1.000000 
z"/>
<path fill="rgba(0, 0, 0, 0)" opacity="1.000000" stroke="none" 
	d="
M21.812222,53.999939 
	C21.812220,37.875645 21.812220,22.251348 21.812220,6.221182 
	C41.710003,6.221182 61.223179,6.221182 81.044754,6.221182 
	C81.044754,14.843547 81.044754,23.448637 81.044754,32.534149 
	C90.054741,32.534149 98.785172,32.534149 107.848389,32.534149 
	C107.848389,63.186466 107.848389,93.357590 107.848389,123.858635 
	C79.272995,123.858635 50.906361,123.858635 21.812225,123.858635 
	C21.812225,100.642715 21.812225,77.571327 21.812222,53.999939 
M86.327156,77.202591 
	C77.431259,80.377243 72.913956,74.945160 68.973167,68.376328 
	C68.802414,68.091705 68.641098,67.791214 68.420052,67.548523 
	C65.229660,64.045807 65.051315,60.488213 66.536942,55.852573 
	C67.749313,52.069576 67.332199,47.492970 66.619728,43.447498 
	C66.013466,40.005066 62.569004,37.874657 59.381226,39.079941 
	C56.903996,40.016567 54.156704,42.841625 53.510986,45.339577 
	C52.758457,48.250702 53.089092,52.559921 54.833351,54.787563 
	C59.953053,61.326099 58.196705,67.242500 54.994129,73.541840 
	C53.873116,75.746826 53.016109,78.102127 52.211739,80.448174 
	C51.046852,83.845734 49.184517,85.800392 45.265766,86.482803 
	C40.009216,87.398178 34.642174,89.337654 32.618690,94.944740 
	C31.807638,97.192154 32.075394,100.774071 33.422279,102.572876 
	C34.621578,104.174583 38.626381,105.415916 40.266575,104.587112 
	C43.745159,102.829338 47.881836,100.190094 49.237320,96.882957 
	C51.818375,90.585632 56.351681,88.238289 62.205849,86.903282 
	C65.102844,86.242638 68.031410,85.662521 70.859398,84.771950 
	C74.382149,83.662590 76.801865,84.570915 79.579338,87.168098 
	C82.352348,89.761108 86.075798,91.694328 89.718987,92.901550 
	C93.491158,94.151527 97.162140,92.757996 98.660057,88.644859 
	C100.245804,84.290581 98.034119,81.152374 94.271049,79.272049 
	C92.106979,78.190720 89.564011,77.867691 86.327156,77.202591 
z"/>
<path fill="#99e" opacity="1.000000" stroke="none" 
	d="
M86.759384,77.202957 
	C89.564011,77.867691 92.106979,78.190720 94.271049,79.272049 
	C98.034119,81.152374 100.245804,84.290581 98.660057,88.644859 
	C97.162140,92.757996 93.491158,94.151527 89.718987,92.901550 
	C86.075798,91.694328 82.352348,89.761108 79.579338,87.168098 
	C76.801865,84.570915 74.382149,83.662590 70.859398,84.771950 
	C68.031410,85.662521 65.102844,86.242638 62.205849,86.903282 
	C56.351681,88.238289 51.818375,90.585632 49.237320,96.882957 
	C47.881836,100.190094 43.745159,102.829338 40.266575,104.587112 
	C38.626381,105.415916 34.621578,104.174583 33.422279,102.572876 
	C32.075394,100.774071 31.807638,97.192154 32.618690,94.944740 
	C34.642174,89.337654 40.009216,87.398178 45.265766,86.482803 
	C49.184517,85.800392 51.046852,83.845734 52.211739,80.448174 
	C53.016109,78.102127 53.873116,75.746826 54.994129,73.541840 
	C58.196705,67.242500 59.953053,61.326099 54.833351,54.787563 
	C53.089092,52.559921 52.758457,48.250702 53.510986,45.339577 
	C54.156704,42.841625 56.903996,40.016567 59.381226,39.079941 
	C62.569004,37.874657 66.013466,40.005066 66.619728,43.447498 
	C67.332199,47.492970 67.749313,52.069576 66.536942,55.852573 
	C65.051315,60.488213 65.229660,64.045807 68.420052,67.548523 
	C68.641098,67.791214 68.802414,68.091705 68.973167,68.376328 
	C72.913956,74.945160 77.431259,80.377243 86.759384,77.202957 
M58.762691,76.453087 
	C57.940449,78.546852 57.118202,80.640610 55.886040,83.778191 
	C61.716591,82.324852 66.522774,81.126854 71.892265,79.788437 
	C68.529228,75.360962 65.597130,71.500839 62.400513,67.292465 
	C61.103607,70.493446 60.052353,73.088112 58.762691,76.453087 
M46.070595,94.031570 
	C45.704048,93.112068 45.337502,92.192558 44.970959,91.273056 
	C42.324635,92.800903 39.551964,94.158379 37.113510,95.966545 
	C36.434029,96.470406 36.245670,99.087181 36.698227,99.375633 
	C37.753681,100.048386 39.781296,100.532524 40.614613,99.949303 
	C42.574646,98.577522 44.066193,96.536369 46.070595,94.031570 
M90.824669,88.597939 
	C92.019798,88.001595 93.214935,87.405251 94.410065,86.808907 
	C93.711311,85.612602 93.301437,83.894562 92.259682,83.317764 
	C89.130493,81.585167 85.763412,80.669884 81.320694,83.927124 
	C84.735573,85.697365 87.388794,87.072769 90.824669,88.597939 
M57.697720,47.433327 
	C58.607803,50.497559 59.517891,53.561787 60.427975,56.626019 
	C61.155285,56.494080 61.882595,56.362141 62.609905,56.230202 
	C62.799648,52.995731 63.237236,49.746101 63.040867,46.535248 
	C62.974686,45.453152 61.299400,44.469467 60.359531,43.440807 
	C59.487511,44.469429 58.615490,45.498051 57.697720,47.433327 
z"/>
<path fill="rgba(0, 0, 0, 0)" opacity="1.000000" stroke="none" 
	d="
M58.881897,76.067932 
	C60.052353,73.088112 61.103607,70.493446 62.400513,67.292465 
	C65.597130,71.500839 68.529228,75.360962 71.892265,79.788437 
	C66.522774,81.126854 61.716591,82.324852 55.886040,83.778191 
	C57.118202,80.640610 57.940449,78.546852 58.881897,76.067932 
z"/>
<path fill="rgba(0, 0, 0, 0)" opacity="1.000000" stroke="none" 
	d="
M45.908951,94.398819 
	C44.066193,96.536369 42.574646,98.577522 40.614613,99.949303 
	C39.781296,100.532524 37.753681,100.048386 36.698227,99.375633 
	C36.245670,99.087181 36.434029,96.470406 37.113510,95.966545 
	C39.551964,94.158379 42.324635,92.800903 44.970959,91.273056 
	C45.337502,92.192558 45.704048,93.112068 45.908951,94.398819 
z"/>
<path fill="rgba(0, 0, 0, 0)" opacity="1.000000" stroke="none" 
	d="
M90.433342,88.523056 
	C87.388794,87.072769 84.735573,85.697365 81.320694,83.927124 
	C85.763412,80.669884 89.130493,81.585167 92.259682,83.317764 
	C93.301437,83.894562 93.711311,85.612602 94.410065,86.808907 
	C93.214935,87.405251 92.019798,88.001595 90.433342,88.523056 
z"/>
<path fill="rgba(0, 0, 0, 0)" opacity="1.000000" stroke="none" 
	d="
M57.720596,46.980000 
	C58.615490,45.498051 59.487511,44.469429 60.359531,43.440807 
	C61.299400,44.469467 62.974686,45.453152 63.040867,46.535248 
	C63.237236,49.746101 62.799648,52.995731 62.609905,56.230202 
	C61.882595,56.362141 61.155285,56.494080 60.427975,56.626019 
	C59.517891,53.561787 58.607803,50.497559 57.720596,46.980000 
z"/>
</svg>