<svg version="1.1" id="Layer_1" xmlns="http://www.w3.org/2000/svg" xmlns:xlink="http://www.w3.org/1999/xlink" x="0px" y="0px"
	 width="100%" viewBox="0 0 128 128" enable-background="new 0 0 128 128" xml:space="preserve">
<path fill="rgba(0, 0, 0, 0)" opacity="1.000000" stroke="none" 
	d="
M85.000000,129.000000 
	C56.666668,129.000000 28.833334,129.000000 1.000000,129.000000 
	C1.000000,86.333336 1.000000,43.666668 1.000000,1.000000 
	C43.666668,1.000000 86.333336,1.000000 129.000000,1.000000 
	C129.000000,43.666668 129.000000,86.333336 129.000000,129.000000 
	C114.500000,129.000000 100.000000,129.000000 85.000000,129.000000 
M79.500000,114.004692 
	C88.826012,114.004692 98.152306,114.048775 107.477936,113.989136 
	C113.665703,113.949570 118.852814,109.646278 118.919426,104.477097 
	C119.000954,98.150581 118.877037,91.821678 118.917267,85.494278 
	C118.942253,81.564034 116.881668,80.002411 113.172676,79.982040 
	C109.317566,79.960876 107.027878,81.439407 107.089661,85.649551 
	C107.162437,90.608696 107.106728,95.569733 107.106728,100.752075 
	C78.927948,100.752075 51.054459,100.752075 22.895460,100.752075 
	C22.895460,95.551720 22.844378,90.588409 22.911098,85.626686 
	C22.967800,81.409966 20.653149,79.952461 16.805397,79.982567 
	C13.092947,80.011627 11.037542,81.586502 11.085485,85.517166 
	C11.150476,90.845459 11.143266,96.175095 11.118236,101.503922 
	C11.078637,109.934006 15.080021,113.996002 23.542957,114.001221 
	C41.861965,114.012527 60.180984,114.004692 79.500000,114.004692 
M73.463478,38.945801 
	C75.812752,40.962814 78.143379,43.002068 80.515968,44.991272 
	C83.546707,47.532284 88.725975,47.854740 90.805679,45.674263 
	C92.891716,43.487171 92.364510,37.628922 89.593552,35.090393 
	C83.181847,29.216505 76.727890,23.382685 70.126846,17.724188 
	C67.071655,15.105235 63.156033,14.968960 60.209637,17.426723 
	C53.027630,23.417667 46.077995,29.717972 39.427387,36.290939 
	C37.980610,37.720833 37.215340,41.100697 37.807373,43.083454 
	C39.257584,47.940323 45.369591,48.604080 49.756050,44.773155 
	C52.690418,42.210415 55.591576,39.609661 59.109165,36.492897 
	C59.109165,53.975834 59.245205,70.282066 59.019207,86.583290 
	C58.958160,90.986359 61.449524,92.417694 64.802933,92.921448 
	C68.328476,93.451073 70.894707,90.459496 70.890770,86.506416 
	C70.883652,79.352089 70.883049,72.197769 70.882050,65.043442 
	C70.880753,55.827229 70.881737,46.611019 70.881737,36.673893 
	C71.990135,37.609344 72.453781,38.000645 73.463478,38.945801 
z"/>
<path fill="white" opacity="1.000000" stroke="none" 
	d="
M79.000000,114.004692 
	C60.180984,114.004692 41.861965,114.012527 23.542957,114.001221 
	C15.080021,113.996002 11.078637,109.934006 11.118236,101.503922 
	C11.143266,96.175095 11.150476,90.845459 11.085485,85.517166 
	C11.037542,81.586502 13.092947,80.011627 16.805397,79.982567 
	C20.653149,79.952461 22.967800,81.409966 22.911098,85.626686 
	C22.844378,90.588409 22.895460,95.551720 22.895460,100.752075 
	C51.054459,100.752075 78.927948,100.752075 107.106728,100.752075 
	C107.106728,95.569733 107.162437,90.608696 107.089661,85.649551 
	C107.027878,81.439407 109.317566,79.960876 113.172676,79.982040 
	C116.881668,80.002411 118.942253,81.564034 118.917267,85.494278 
	C118.877037,91.821678 119.000954,98.150581 118.919426,104.477097 
	C118.852814,109.646278 113.665703,113.949570 107.477936,113.989136 
	C98.152306,114.048775 88.826012,114.004692 79.000000,114.004692 
z"/>
<path fill="white" opacity="1.000000" stroke="none" 
	d="
M73.190453,38.668877 
	C72.453781,38.000645 71.990135,37.609344 70.881737,36.673893 
	C70.881737,46.611019 70.880753,55.827229 70.882050,65.043442 
	C70.883049,72.197769 70.883652,79.352089 70.890770,86.506416 
	C70.894707,90.459496 68.328476,93.451073 64.802933,92.921448 
	C61.449524,92.417694 58.958160,90.986359 59.019207,86.583290 
	C59.245205,70.282066 59.109165,53.975834 59.109165,36.492897 
	C55.591576,39.609661 52.690418,42.210415 49.756050,44.773155 
	C45.369591,48.604080 39.257584,47.940323 37.807373,43.083454 
	C37.215340,41.100697 37.980610,37.720833 39.427387,36.290939 
	C46.077995,29.717972 53.027630,23.417667 60.209637,17.426723 
	C63.156033,14.968960 67.071655,15.105235 70.126846,17.724188 
	C76.727890,23.382685 83.181847,29.216505 89.593552,35.090393 
	C92.364510,37.628922 92.891716,43.487171 90.805679,45.674263 
	C88.725975,47.854740 83.546707,47.532284 80.515968,44.991272 
	C78.143379,43.002068 75.812752,40.962814 73.190453,38.668877 
z"/>
</svg>